<svg xmlns="http://www.w3.org/2000/svg" viewBox="0 0 24 24" fill="#25D366"><path d="M20.5 3.5A11.5 11.5 0 006.1 20.3L2 22l1.8-4a11.5 11.5 0 1016.7-14.5zM6.2 18.2l.3-.9-.6.6.3.3z"/><path fill="#fff" d="M17.2 14.7c-.2.5-1.1 1-1.5 1-.4 0-.8.2-2.7-.6-2.3-1-3.8-3.3-3.9-3.5-.1-.2-.9-1.2-.9-2.2 0-1 .5-1.5.7-1.7.2-.2.4-.2.5-.2h.4c.1 0 .3 0 .4.3.2.5.6 1.7.6 1.8.1.2.1.3 0 .5-.1.2-.2.3-.3.4-.1.1-.3.3-.1.6.2.3.8 1.2 1.8 1.9 1.3.9 1.9 1.1 2.2.9.3-.2.4-.6.6-.8.2-.3.4-.2.6-.1.2.1 1.4.7 1.6.8.2.1.4.2.4.3.1 0 .1.5-.1 1z"/></svg>